<svg xmlns="http://www.w3.org/2000/svg" xmlns:xlink="http://www.w3.org/1999/xlink" viewBox="0 0 408.15 333.05"><defs><linearGradient id="Gradiente_sem_nome_16" x1="293.99" y1="66.03" x2="170.42" y2="280.05" gradientUnits="userSpaceOnUse"><stop offset="0" stop-color="#4442b2"/><stop offset="1" stop-color="#36a9e1"/></linearGradient><linearGradient id="Gradiente_sem_nome_16-4" x1="250.94" y1="206.38" x2="269.9" y2="206.38" xlink:href="#Gradiente_sem_nome_16"/><linearGradient id="Gradiente_sem_nome_16-5" x1="268.72" y1="166.7" x2="256.93" y2="59.96" xlink:href="#Gradiente_sem_nome_16"/><linearGradient id="New_Gradient_Swatch_copy_5" x1="219.14" y1="176.38" x2="191.59" y2="124.96" gradientUnits="userSpaceOnUse"><stop offset="0" stop-color="#ffb876"/><stop offset="1" stop-color="#fdcca3"/></linearGradient><linearGradient id="Gradiente_sem_nome_16-6" x1="211.74" y1="146.47" x2="240.92" y2="146.47" xlink:href="#Gradiente_sem_nome_16"/><linearGradient id="Gradiente_sem_nome_16-7" x1="218.21" y1="163.52" x2="283.36" y2="163.52" xlink:href="#Gradiente_sem_nome_16"/><linearGradient id="Gradiente_sem_nome_16-8" x1="1.93" y1="188.51" x2="46.89" y2="27.17" xlink:href="#Gradiente_sem_nome_16"/><linearGradient id="Gradiente_sem_nome_16-9" x1="91.38" y1="123.21" x2="121.04" y2="123.21" xlink:href="#Gradiente_sem_nome_16"/><linearGradient id="Gradiente_sem_nome_16-10" x1="50.24" y1="201.98" x2="95.2" y2="40.63" xlink:href="#Gradiente_sem_nome_16"/><linearGradient id="New_Gradient_Swatch_copy_5-2" x1="12.19" y1="17.67" x2="43.35" y2="17.67" xlink:href="#New_Gradient_Swatch_copy_5"/><linearGradient id="Gradiente_sem_nome_16-11" x1="122.23" y1="176.82" x2="174.91" y2="309.5" xlink:href="#Gradiente_sem_nome_16"/><linearGradient id="Gradiente_sem_nome_16-12" x1="114.06" y1="280.21" x2="118.16" y2="224.89" xlink:href="#Gradiente_sem_nome_16"/><linearGradient id="Gradiente_sem_nome_16-13" x1="96.59" y1="188.3" x2="152.23" y2="188.3" xlink:href="#Gradiente_sem_nome_16"/><linearGradient id="New_Gradient_Swatch_copy_5-3" x1="120.92" y1="174.78" x2="123.5" y2="205.18" xlink:href="#New_Gradient_Swatch_copy_5"/><linearGradient id="New_Gradient_Swatch_copy_5-4" x1="101.72" y1="176.41" x2="104.29" y2="206.81" xlink:href="#New_Gradient_Swatch_copy_5"/><linearGradient id="Gradiente_sem_nome_16-14" x1="101.67" y1="186" x2="142.91" y2="186" xlink:href="#Gradiente_sem_nome_16"/><linearGradient id="Gradiente_sem_nome_16-15" x1="62.25" y1="253.34" x2="95.26" y2="253.34" xlink:href="#Gradiente_sem_nome_16"/><linearGradient id="New_Gradient_Swatch_copy_5-5" x1="64.37" y1="208.97" x2="70.81" y2="208.97" xlink:href="#New_Gradient_Swatch_copy_5"/><linearGradient id="New_Gradient_Swatch_copy_5-6" x1="262.79" y1="51.57" x2="256.47" y2="107.02" xlink:href="#New_Gradient_Swatch_copy_5"/><linearGradient id="New_Gradient_Swatch_copy_5-7" x1="282.76" y1="53.85" x2="276.43" y2="109.29" xlink:href="#New_Gradient_Swatch_copy_5"/><linearGradient id="Gradiente_sem_nome_16-16" x1="274.85" y1="166.02" x2="263.06" y2="59.28" xlink:href="#Gradiente_sem_nome_16"/><linearGradient id="New_Gradient_Swatch_copy_5-8" x1="277.46" y1="184.85" x2="300.02" y2="184.85" xlink:href="#New_Gradient_Swatch_copy_5"/><linearGradient id="Gradiente_sem_nome_16-17" x1="266.2" y1="161.18" x2="292.93" y2="161.18" xlink:href="#Gradiente_sem_nome_16"/><linearGradient id="New_Gradient_Swatch_copy_5-9" x1="222.54" y1="174.55" x2="195" y2="123.13" xlink:href="#New_Gradient_Swatch_copy_5"/><linearGradient id="Gradiente_sem_nome_16-18" x1="86" y1="205.63" x2="76.69" y2="49.5" xlink:href="#Gradiente_sem_nome_16"/><linearGradient id="New_Gradient_Swatch_copy_5-10" x1="90.73" y1="37.25" x2="87.22" y2="64.97" xlink:href="#New_Gradient_Swatch_copy_5"/><linearGradient id="New_Gradient_Swatch_copy_5-11" x1="73.68" y1="35.09" x2="70.17" y2="62.81" xlink:href="#New_Gradient_Swatch_copy_5"/><linearGradient id="Gradiente_sem_nome_16-19" x1="68.62" y1="38.88" x2="107.58" y2="38.88" xlink:href="#Gradiente_sem_nome_16"/><linearGradient id="Gradiente_sem_nome_16-20" x1="81.25" y1="53.53" x2="115.87" y2="53.53" xlink:href="#Gradiente_sem_nome_16"/><style>.cls-2{fill:url(#Gradiente_sem_nome_16)}.cls-3{fill:#174f81}.cls-4{fill:#6dbe99}.cls-16{fill:#ffb876}.cls-34{fill:#3b3457}</style></defs><g id="Layer_2" data-name="Layer 2"><g id="Camada_1" data-name="Camada 1"><g opacity=".5"><path class="cls-2" d="M251.46 286.64h-1.56a43.94 43.94 0 01-42.45-43.21c-.33-23.62 16.86-42.19 40.88-44.16 13.22-1.09 23.68-6.29 29.47-14.65 5.11-7.4 6.26-16.74 3.33-27-3.51-12.28-15.68-20.75-31-21.58-23-1.24-39.52-17.12-42.1-40.46-2.17-19.69 11.81-39.32 32.52-45.66C252.43 46.24 266 48.7 277 56.44a42.78 42.78 0 0118.51 33.1c.64 14.78 5.92 24.15 16.61 29.47a51 51 0 0017.19 4.7c23.35 2.33 40.21 20.08 41 43.16.75 22.17-15.76 41.31-38.4 44.54-28.07 4-33.63 9.71-37.18 38.33-2.58 20.64-21.8 36.9-43.27 36.9zm.34-223.58a23.6 23.6 0 00-6.92 1c-14 4.3-23.51 17.13-22.11 29.85 1.76 16 12.55 26.43 28.15 27.28 21.75 1.17 39.21 13.86 44.48 32.31 4.13 14.5 2.22 28.5-5.4 39.5-8.36 12.08-22.73 19.54-40.45 21-16.28 1.33-27.49 13.32-27.27 29.16.22 15.21 12.85 28 28.16 28.59 14.25.61 27.87-10.4 29.55-23.87 4.37-35.26 15.07-46.26 49.81-51.2 15.12-2.15 26.15-14.76 25.67-29.34-.53-15.44-11.9-27.33-27.65-28.9a65.26 65.26 0 01-22.32-6.17c-15.59-7.76-23.95-21.93-24.82-42.12a28.06 28.06 0 00-12.25-21.62 29.14 29.14 0 00-16.63-5.47zM129.09 249.6a44.08 44.08 0 01-25.25-8.21 42.79 42.79 0 01-18.51-33.09c-.64-14.8-5.92-24.16-16.6-29.48a50.87 50.87 0 00-17.19-4.69c-23.37-2.33-40.22-20.08-41-43.17C9.8 108.79 26.31 89.65 49 86.43c28.07-4 33.63-9.72 37.18-38.33C88.75 27 109.17 10.53 131 11.22a44 44 0 0142.4 43.22c.34 23.61-16.86 42.18-40.88 44.15-13.22 1.09-23.68 6.29-29.47 14.66-5.11 7.4-6.26 16.73-3.33 27 3.5 12.28 15.68 20.75 31 21.58 23 1.25 39.51 17.13 42.09 40.46C175 222 161 241.6 140.31 248a38.53 38.53 0 01-11.22 1.6zm.32-223.6c-14 0-26.92 10.74-28.56 23.9C96.48 85.18 85.77 96.18 51 101.12c-15.12 2.15-26.16 14.76-25.67 29.34.52 15.45 11.89 27.33 27.64 28.9a65.35 65.35 0 0122.33 6.18c15.59 7.76 23.94 21.93 24.81 42.12a28 28 0 0012.26 21.61c7.23 5.11 16.05 6.79 23.55 4.49 14-4.29 23.51-17.12 22.11-29.85-1.76-16-12.54-26.43-28.14-27.27-21.76-1.18-39.21-13.87-44.48-32.32-4.14-14.47-2.22-28.5 5.4-39.51 8.37-12.09 22.73-19.55 40.45-21 16.28-1.34 27.48-13.33 27.26-29.16-.21-15.21-12.84-28-28.16-28.6-.29-.05-.62-.05-.95-.05zM372.77 333.05a35.38 35.38 0 1135.38-35.38 35.42 35.42 0 01-35.38 35.38zm0-55.92a20.55 20.55 0 1020.55 20.54 20.56 20.56 0 00-20.55-20.54z"/></g><path class="cls-3" d="M64.37 113.47v156.77h12.12V124.31h201.36v145.93h12.11V113.47H64.37z"/><rect class="cls-4" x="197.66" y="123.23" width="119.47" height="74.56" rx="36.19" transform="rotate(-180 257.39 160.505)"/><path d="M250.94 213.74v-16h19l-16.84 16.84a1.24 1.24 0 01-2.16-.84z" fill="url(#Gradiente_sem_nome_16-4)"/><path d="M276.29 70.34c11.1 7.46 14.95 13.49 13.51 24.81s-1.93 20.48 2.16 24.33 14.46 12.13 8.92 20-12.11 9.84-12.11 9.84 3.43 11.08-7.65 11.56-44.81-4.57-46.74-18.07 0-19.51-5.78-24.09-2.65-14.21 0-19.51-5.54-14.46 1.93-21.93 15.66-12.77 24.09-7 21.67.06 21.67.06z" fill="url(#Gradiente_sem_nome_16-5)"/><path d="M215 152.66l-5 3.89s-4.1-11.29-7.89-22.32-4.61-16.88-4.61-16.88l-10.7 2.89s2.63 13.33 5.27 31.27 8.89 25.35 13.66 26 23.54-16 23.54-16z" fill="url(#New_Gradient_Swatch_copy_5)"/><path d="M240.92 129.28c-8.59 0-13 1.61-19.06 10.24a145.4 145.4 0 01-10.12 13.14s6.48 8.15 13.6 10.86 15.58-34.24 15.58-34.24z" fill="url(#Gradiente_sem_nome_16-6)"/><path d="M257.39 132.25c-18.91-5.3-22-4-29 7.27s-12.77 22.61-8.91 29.84 8.19 13.73 7 28.42h47.46a46.76 46.76 0 010-21.92c2.9-12.05 14.22-20.24 7.23-29.87s-23.78-13.74-23.78-13.74z" fill="url(#Gradiente_sem_nome_16-7)"/><rect class="cls-3" x="38.41" y="270.24" width="277.52" height="16.9" rx="8.45"/><rect class="cls-4" x="24.46" y="82.73" width="112.27" height="74.56" rx="36.19" transform="rotate(-180 80.595 120.015)"/><path d="M65.73 81.75c-18.12-4.26-34-2.66-39.06-15.66s0-30.75 0-30.75A95 95 0 0111 33.68S5.72 53.74 6.25 69.86s6.36 18.5 16.17 24.6 24.25 10.34 24.25 10.34z" fill="url(#Gradiente_sem_nome_16-8)"/><path d="M91.38 89.28a36 36 0 018.62 5.46c9.17 7.91 12.26 18.37 15.85 31.54 3.15 11.49 5.15 24.64 5.15 24.64a24.73 24.73 0 01-17.17 6.22l-9.6-16.28z" fill="url(#Gradiente_sem_nome_16-9)"/><path d="M75.15 82.11c18.9 5 22.3 12.09 24.69 23.22s0 52.23 0 52.23H38.6s2.12-39 2.65-50.37 2.06-33.45 33.9-25.08z" fill="url(#Gradiente_sem_nome_16-10)"/><path d="M26.67 35.34S34 33.27 36 27.17s4.79-9.85 6.9-11.73-3.24-4.46-6.9 0l-3.69 4.46S37.94 2.3 33 .66s-15 0-16.75 2.58-4.83 11-3.89 17.83A43.94 43.94 0 0015 31.63v2.75z" fill="url(#New_Gradient_Swatch_copy_5-2)"/><rect class="cls-4" x="60.1" y="195.5" width="119.47" height="74.56" rx="36.19" transform="rotate(-180 119.83 232.78)"/><path d="M145.73 231.52c10.57 4.85 23 38.54 23 38.54h-18.96z" fill="url(#Gradiente_sem_nome_16-11)"/><path d="M118.55 223.77c18.53-.06 38.85 7.74 33.68 30.1-2.46 10.64-2.46 16.19-2.46 16.19h-66.6s-2.62-16.21-2.94-26.55 15.92-19.67 38.32-19.74z" fill="url(#Gradiente_sem_nome_16-12)"/><path class="cls-16" d="M129.93 213.73s-2.05 7.32-1.7 12.59c0 0 7.66 1.54 5.44 5.45s-5.44 7.66-14.13 6.64-18.72-8.17-16.08-10.55 5-2.73 7.06-18.9z"/><path d="M138.39 192.61c3.69-1.48 11-5 10.7-9.41-.18-2.4-3.87-1.11-3.87-1.11s7-6.83 7-11.71-6.64-.28-8.49 0c0 0 2.77-8.21 0-9.13s-7.19 4.05-9.78 3.87-21.22-4.15-27.67.55-6.27 9.78-6.27 9.78-4.61 2.89-3.14 9.41 6.7 15.68 6.58 20.11-2.28 7.64 0 8.12a4.57 4.57 0 004-1.34s-1.48 3.72.43 3.72 5.92-6.58 5.92-6.58z" fill="url(#Gradiente_sem_nome_16-13)"/><path d="M140.26 181.53s0 13.43-1.52 21-10.36 17-16.84 16-14.84-7.86-16.86-15.46-1.53-25.22-1.53-25.22z" fill="url(#New_Gradient_Swatch_copy_5-3)"/><path d="M107.41 200.17s-3 2.22-5.36 0-5.35-11.07-2.77-12.73 8.13 1.48 8.13 1.48z" fill="url(#New_Gradient_Swatch_copy_5-4)"/><path d="M142.69 177.85s2.22 6.94-7.66 7.11-17.32-3.55-20.89-1-3.15 15.31-7.34 13.86c-1.62-.56-5.13-15.24-5.13-15.24v-8.51z" fill="url(#Gradiente_sem_nome_16-14)"/><path d="M89.77 230.4C77 236.27 67 254.88 64.22 270.06l-2 5.48s5.31 2.46 9.31-1.54 21.52-22 21.52-22a18 18 0 00-3.28-21.6z" fill="url(#Gradiente_sem_nome_16-15)"/><path class="cls-16" d="M80.14 233a167.49 167.49 0 01-4.09 20.86c-2.67 9.57-7.81 23.87-13.8 21.67s-6.52-10.63-2.54-21.9c3.14-8.9 8.92-23.37 8.92-23.37z"/><rect x="68.63" y="191.54" width="23.01" height="41.46" rx="8.31" transform="rotate(-180 80.135 212.275)" fill="#4442b2"/><circle cx="85.23" cy="197.82" r="2.32" fill="#fff"/><path d="M62.78 216.39a12.37 12.37 0 016.38-5.39c5.49-2.06 10.58-3.81 9.92-1.18-.79 3.16-5.53 5.63-5.53 5.63s5.65-3.84 5.59 0 1.53 15-2.82 17.54-8.3 3-10.47-1.49-4.68-12.32-3.12-15.05z" fill="#fdcca3"/><path d="M66.88 214s-.77-2.54-1.94-5.49-.52-5.54 1.94-4.24 3.93 8 3.93 8z" fill="url(#New_Gradient_Swatch_copy_5-5)"/><path class="cls-16" d="M248.89 121.1s1.13 6.49 0 10.32l-.78 2.65s-7.34-.62-7.19 6.25 8 12.34 15 12.34 15.47-4.68 13.75-9.84-3.75-4.37-3.75-6.87a115.81 115.81 0 012.66-18.6z"/><path d="M255.76 76.4c-10.19-1.06-18.17 10.49-18.43 25.34s5.12 21.49 13.31 23.28 19.45-5.63 22.27-11.26 14.84-34.03-17.15-37.36z" fill="url(#New_Gradient_Swatch_copy_5-6)"/><path d="M273 104.86s5.94-4.22 8.6-1.41.46 11.72-4.3 12.34a8.34 8.34 0 01-7.35-2.5z" fill="url(#New_Gradient_Swatch_copy_5-7)"/><path d="M251.73 70.34c-8 4.94-4.58 17.1 2.41 22.16s16.67 3.27 18.81 12.36 12.27 8.6 12.27 8.6 2.63-36.62-8.93-43.12-17.57-4.34-24.56 0z" fill="url(#Gradiente_sem_nome_16-16)"/><path d="M291.1 171.92l8.9 20.42a43.25 43.25 0 01-5.69 2.95 44.17 44.17 0 01-7.68 2.49l-9.19-19.56z" fill="url(#New_Gradient_Swatch_copy_5-8)"/><path d="M274.09 139.52c10.89 5.26 15.71 25.26 18.84 33.21a24.75 24.75 0 01-13 9.15l-3.63 1s-11.23-15.36-10-24.82 7.79-18.54 7.79-18.54z" fill="url(#Gradiente_sem_nome_16-17)"/><path d="M197.54 117.35s3-2.67 2.48-8.17-3.31-4.68-4.69-9.79-4.7-6.9-4.83-4.28 3.86 8.15 1.79 9.39-10.77-11.5-14.63-9.94-6.21 11.84-3.45 14.62 12.63 11.06 12.63 11.06z" fill="url(#New_Gradient_Swatch_copy_5-9)"/><path d="M92.59 173.14v-16h-19L90.47 174a1.24 1.24 0 002.12-.86z" fill="url(#Gradiente_sem_nome_16-18)"/><path d="M138.63 270.24h77.09a8.45 8.45 0 01-8.45 8.45h-60.2a8.45 8.45 0 01-8.45-8.45z" fill="#001529"/><path class="cls-4" d="M201.36 47.91h-5.7A17.11 17.11 0 00178.56 65a17.1 17.1 0 0017.1 17.1h5.7a17.1 17.1 0 0017.1-17.1 17.11 17.11 0 00-17.1-17.09zM192 68.52a1.11 1.11 0 01.58 1 1.09 1.09 0 01-1.09 1.09.9.9 0 01-.5-.14l-4.63-2.39a1.82 1.82 0 010-3.35l4.64-2.46a.86.86 0 01.48-.12 1.08 1.08 0 01.51 2l-4.27 2.19zm10.66-10.77l-6 15.41a1.26 1.26 0 01-1.17.83 1.28 1.28 0 01-1.19-1.72l6-15.41a1.26 1.26 0 112.36.89zm7.94 10.3l-4.6 2.39a.9.9 0 01-.5.14 1.09 1.09 0 01-.5-2.06l4.26-2.14-4.26-2.19a1.08 1.08 0 01.5-2 .86.86 0 01.48.12l4.65 2.43a1.82 1.82 0 010 3.31zM29.46 177.27H16.12A13.83 13.83 0 002.29 191.1v20.18a13.83 13.83 0 0013.83 13.83h13.34a13.83 13.83 0 0013.83-13.83V191.1a13.83 13.83 0 00-13.83-13.83zm1.94 32.78H14.19a1.51 1.51 0 110-3H31.4a1.51 1.51 0 010 3zm0-7.35H14.19a1.51 1.51 0 010-3H31.4a1.51 1.51 0 010 3zm0-7.36H14.19a1.51 1.51 0 110-3H31.4a1.51 1.51 0 010 3z"/><path class="cls-34" d="M74.37 60.7s-2 9.75-4.26 9.13-1.49-5.64-1.49-5.64-2.89 3-3.35-1.52S68 48.09 68.62 42.09l8.85 1.26-3.77 14.3z"/><path class="cls-16" d="M86.42 75.76s-3.5 7-3.8 10l4.72 3.15s7.6 14.61-8.37 14.31-18-17.65-17.8-21.3l4.56-.16S71.73 66.44 72 61z"/><path d="M105.36 46.44c-.24 10-2.92 22.26-9.54 28.09S85.29 79.41 82 76.29s-11.61-9.37-9.71-20.71S75.41 37.14 81 34.71s24.68-1.32 24.36 11.73z" fill="url(#New_Gradient_Swatch_copy_5-10)"/><path d="M74.37 60.7s-5.44 3.19-6.66-3.7 2-13.24 7.3-7.15z" fill="url(#New_Gradient_Swatch_copy_5-11)"/><path class="cls-34" d="M81.25 43.5s-4.19 12.08-6.57 12.08-1-15-1-15z"/><path d="M107.12 50.65s1.79-10.63-1.71-16.33S83.27 21 73.06 30c-3.1 2.74-4.44 12.1-4.44 12.1s7 3.5 12.63 4l15.22 5.88z" fill="url(#Gradiente_sem_nome_16-19)"/><path d="M107.12 50.65s-14.51.66-25.87-4.6c0 0 3.35 8.58 15.21 12.08s21 4.17 19.18 0-8.52-7.48-8.52-7.48z" fill="url(#Gradiente_sem_nome_16-20)"/><path class="cls-4" d="M313.49 92h-2.06v-2a1.88 1.88 0 10-3.75 0v2h-2.06a1.88 1.88 0 100 3.75h2.06v2.06a1.88 1.88 0 103.75 0v-2.02h2.06a1.88 1.88 0 100-3.75zM9.75 123.42H7.69v-2.06a1.88 1.88 0 10-3.75 0v2.06H1.88a1.88 1.88 0 100 3.75h2.06v2.06a1.88 1.88 0 103.75 0v-2.06h2.06a1.88 1.88 0 100-3.75z"/><circle class="cls-4" cx="133.88" cy="61.44" r="3.92"/><circle class="cls-4" cx="34.49" cy="234.66" r="3.92"/></g></g></svg>