<?xml version="1.0" encoding="UTF-8"?>
<svg xmlns="http://www.w3.org/2000/svg" style="display: none;">
  <symbol id="menu-icon" viewBox="0 0 26.93 16.55">
    <path class="cls-1" d="M26.43 1H.5A.5.5 0 010 .5.5.5 0 01.5 0h25.93a.5.5 0 01.5.5.5.5 0 01-.5.5zM26.43 8.77H.5a.5.5 0 01-.5-.5.5.5 0 01.5-.5h25.93a.5.5 0 01.5.5.5.5 0 01-.5.5zM26.43 16.55H.5a.5.5 0 010-1h25.93a.5.5 0 010 1z"/>
  </symbol>
  <symbol id="search-icon" viewBox="0 0 22.97 22.97">
    <path d="M22.44 19.91l-6-6A8.86 8.86 0 0017.94 9a8.95 8.95 0 10-4 7.49l1.65 1.65 4.34 4.33a1.76 1.76 0 001.26.53 1.81 1.81 0 001.8-1.8 1.75 1.75 0 00-.55-1.29zm-8.73-4.4a8.09 8.09 0 111.8-1.8 8 8 0 01-1.8 1.8zm8.1 6.3a.9.9 0 01-.64.26.88.88 0 01-.63-.26l-5.89-5.89a9.53 9.53 0 001.27-1.27l5.89 5.89a.88.88 0 01.26.63.9.9 0 01-.26.64z"/>
  </symbol>
</svg>